<svg xmlns="http://www.w3.org/2000/svg" viewBox="0 0 900 900" role="img" width="900" height="900">
  <title>Burguer de sushi: medallón de arroz con salmón y palta entre dos tapas de arroz</title>
  <defs>
    <linearGradient id="fondoBurger" x1="0" y1="0" x2="1" y2="1">
      <stop offset="0" stop-color="#F00070"/>
      <stop offset="1" stop-color="#8f0043"/>
    </linearGradient>
  </defs>
  <rect width="900" height="900" fill="url(#fondoBurger)"/>
  <g opacity="0.18" fill="none" stroke="#ffffff" stroke-width="6">
    <circle cx="450" cy="450" r="330"/>
    <circle cx="450" cy="450" r="270"/>
    <circle cx="450" cy="450" r="210"/>
  </g>
  <g transform="translate(450 470)">
    <ellipse cx="0" cy="-190" rx="215" ry="74" fill="#fdfaf3"/>
    <ellipse cx="0" cy="-190" rx="215" ry="74" fill="none" stroke="#e2d9c6" stroke-width="5"/>
    <g fill="#f6d9a0">
      <circle cx="-96" cy="-206" r="13"/><circle cx="-42" cy="-224" r="13"/>
      <circle cx="16" cy="-228" r="13"/><circle cx="74" cy="-216" r="13"/>
      <circle cx="-70" cy="-172" r="12"/><circle cx="0" cy="-158" r="12"/>
      <circle cx="66" cy="-166" r="12"/>
    </g>
    <ellipse cx="0" cy="-122" rx="208" ry="66" fill="#f2865f"/>
    <ellipse cx="0" cy="-122" rx="208" ry="66" fill="none" stroke="#d96a45" stroke-width="5"/>
    <path d="M-150-104c30-26 62-38 96-38 34 0 66 12 96 38-30 26-62 38-96 38-34 0-66-12-96-38Z" fill="#f9b7a0" opacity="0.75"/>
    <ellipse cx="0" cy="-58" rx="196" ry="60" fill="#7fb069"/>
    <ellipse cx="0" cy="-58" rx="196" ry="60" fill="none" stroke="#5f8c4e" stroke-width="5"/>
    <ellipse cx="0" cy="6" rx="186" ry="56" fill="#fdfaf3"/>
    <ellipse cx="0" cy="6" rx="186" ry="56" fill="none" stroke="#e2d9c6" stroke-width="5"/>
    <g fill="#f6d9a0">
      <circle cx="-84" cy="-10" r="12"/><circle cx="-20" cy="-24" r="12"/>
      <circle cx="44" cy="-16" r="12"/><circle cx="96" cy="6" r="11"/>
    </g>
    <ellipse cx="0" cy="76" rx="206" ry="68" fill="#8c5a2b"/>
    <ellipse cx="0" cy="76" rx="206" ry="68" fill="none" stroke="#6d4420" stroke-width="6"/>
    <g fill="#f3e6cf" opacity="0.85">
      <circle cx="-120" cy="58" r="7"/><circle cx="-58" cy="94" r="7"/>
      <circle cx="10" cy="52" r="7"/><circle cx="78" cy="96" r="7"/>
      <circle cx="132" cy="66" r="6"/>
    </g>
    <ellipse cx="0" cy="152" rx="212" ry="72" fill="#fdfaf3"/>
    <ellipse cx="0" cy="152" rx="212" ry="72" fill="none" stroke="#e2d9c6" stroke-width="5"/>
  </g>
</svg>
